<svg version="1.1" viewBox="0.0 0.0 596.0 419.7769028871391" fill="none" stroke="none" stroke-linecap="square" stroke-miterlimit="10" xmlns:xlink="http://www.w3.org/1999/xlink" xmlns="http://www.w3.org/2000/svg"><clipPath id="p.0"><path d="m0 0l596.0 0l0 419.77692l-596.0 0l0 -419.77692z" clip-rule="nonzero"/></clipPath><g clip-path="url(#p.0)"><path fill="#000000" fill-opacity="0.0" d="m0 0l596.0 0l0 419.77692l-596.0 0z" fill-rule="evenodd"/><path fill="#000000" fill-opacity="0.0" d="m244.02887 -123.009186l364.8819 0l0 665.7953l-364.8819 0z" fill-rule="evenodd"/><path fill="#000000" d="m285.02887 397.9908l0 -48.53125l208.53125 -278.40625l16.53125 18.671875l-211.20312 0l0 -65.0625l274.67188 0l0 48.0l-207.46875 278.92188l-17.0625 -17.59375l230.39062 0l0 64.0l-294.39062 0z" fill-rule="nonzero"/><path fill="#000000" fill-opacity="0.0" d="m-12.910761 -123.009186l364.8819 0l0 665.7953l-364.8819 0z" fill-rule="evenodd"/><path fill="#000000" d="m120.886116 397.9908l0 -309.32812l-106.65625 0l0 -64.0l285.85938 0l0 64.0l-109.875 0l0 309.32812l-69.32812 0z" fill-rule="nonzero"/></g></svg>